# xmcd
#
# Track frame offsets: 
#        150
#        21075
#        37687
#        61150
#        76982
#        101412
#        124262
#        153875
#        165817
#        182175
#
# Disc length: 2866 seconds
#
# Revision: 3
# Processed by: cddbd v1.5.2PL0 Copyright (c) Steve Scherf et al.
# Submitted via: ExactAudioCopy v0.99pb4
#
DISCID=660b300a
DTITLE=Rory Gallagher - Rory Gallagher
DYEAR=1971
DGENRE=Rock
TTITLE0=Laundromat
TTITLE1=Just The Smile
TTITLE2=I Fall Apart
TTITLE3=Wave Myself Goodbye
TTITLE4=Hands Up
TTITLE5=Sinner Boy
TTITLE6=For The Last Time
TTITLE7=It's You
TTITLE8=I'm Not Surprised
TTITLE9=Can't Believe It's True
EXTD=
EXTT0=
EXTT1=
EXTT2=
EXTT3=
EXTT4=
EXTT5=
EXTT6=
EXTT7=
EXTT8=
EXTT9=
PLAYORDER=
